<svg
  xmlns="http://www.w3.org/2000/svg"
  width="512"
  height="512"
  viewBox="0 0 512 512"
  style="overflow: visible;"
  data-bbox="27.956 209.381 456.088 93.238"
><defs
    transform="matrix(0.8013500217001008, 0, 0, 0.8013500217001008, 50.447998334106416, 50.44799471135434)"
    data-uid="o_fd3h0kbba_7"
  ><radialGradient
      x1="0%"
      y1="50%"
      x2="100%"
      y2="50%"
      id="o_fd3h0kbba_5"
      gradientUnits="objectBoundingBox"
      data-uid="o_fd3h0kbba_8"
    ><stop
        offset="0%"
        stop-color="rgb(255,96,76)"
        stop-opacity="1"
        data-uid="o_fd3h0kbba_9"
      /><stop
        offset="74%"
        stop-color="rgb(194,21,0)"
        stop-opacity="1"
        data-uid="o_fd3h0kbba_10"
      /></radialGradient></defs><g
    transform="matrix(0.1356217767076672, 0, 0, 0.1356217767076672, 48, 213.1552314524132)"
    fill="url(#o_fd3h0kbba_5)"
    data-uid="o_fd3h0kbba_11"
  ><g fill="rgba(194,21,0,1)" data-uid="o_fd3h0kbba_12"><path
        d="m101.993 70.331c-17.459 0-31.663 14.204-31.663 31.663s14.204 31.663 31.663 31.663 31.663-14.204 31.663-31.663-14.204-31.663-31.663-31.663z"
        fill="rgba(194,21,0,1)"
        transform="matrix(1, 0, 0, 1, 0, 0)"
        data-uid="o_fd3h0kbba_13"
      /><path
        d="m410.007 378.344c-17.459 0-31.663 14.204-31.663 31.663s14.204 31.663 31.663 31.663 31.663-14.204 31.663-31.663-14.204-31.663-31.663-31.663z"
        fill="rgba(194,21,0,1)"
        transform="matrix(1, 0, 0, 1, 0, 0)"
        data-uid="o_fd3h0kbba_14"
      /><path
        d="m101.993 378.344c-17.459 0-31.663 14.204-31.663 31.663s14.204 31.663 31.663 31.663 31.663-14.204 31.663-31.663-14.204-31.663-31.663-31.663z"
        fill="rgba(194,21,0,1)"
        transform="matrix(1, 0, 0, 1, 0, 0)"
        data-uid="o_fd3h0kbba_15"
      /><path
        fill="rgba(194,21,0,1)"
        transform="matrix(1, 0, 0, 1, 0, 0)"
        data-type="circle"
        data-cx="410.007"
        data-cy="101.993"
        data-r="31.663"
        d="M410.007 101.993m-31.663 0a31.663 31.663 0 1 0 63.326 0a31.663 31.663 0 1 0 -63.326 0"
        data-uid="o_fd3h0kbba_16"
      /><path
        d="m23.537 178.988c-12.978 0-23.537 10.558-23.537 23.536 0 12.979 10.559 23.537 23.537 23.537s23.537-10.559 23.537-23.537-10.558-23.536-23.537-23.536z"
        fill="rgba(194,21,0,1)"
        transform="matrix(1, 0, 0, 1, 0, 0)"
        data-uid="o_fd3h0kbba_17"
      /><path
        d="m488.463 226.062c12.979 0 23.537-10.559 23.537-23.537s-10.559-23.537-23.537-23.537-23.537 10.559-23.537 23.537 10.558 23.537 23.537 23.537z"
        fill="rgba(194,21,0,1)"
        transform="matrix(1, 0, 0, 1, 0, 0)"
        data-uid="o_fd3h0kbba_18"
      /><path
        d="m23.537 285.938c-12.978 0-23.537 10.559-23.537 23.538 0 12.978 10.559 23.537 23.537 23.537s23.537-10.559 23.537-23.537c0-12.979-10.558-23.538-23.537-23.538z"
        fill="rgba(194,21,0,1)"
        transform="matrix(1, 0, 0, 1, 0, 0)"
        data-uid="o_fd3h0kbba_19"
      /><path
        d="m488.463 285.938c-12.979 0-23.537 10.559-23.537 23.537s10.559 23.537 23.537 23.537 23.537-10.558 23.537-23.536c0-12.979-10.559-23.538-23.537-23.538z"
        fill="rgba(194,21,0,1)"
        transform="matrix(1, 0, 0, 1, 0, 0)"
        data-uid="o_fd3h0kbba_20"
      /><path
        fill="rgba(194,21,0,1)"
        transform="matrix(1, 0, 0, 1, 0, 0)"
        data-type="circle"
        data-cx="309.476"
        data-cy="23.537"
        data-r="23.537"
        d="M309.476 23.537m-23.537 0a23.537 23.537 0 1 0 47.074 0a23.537 23.537 0 1 0 -47.074 0"
        data-uid="o_fd3h0kbba_21"
      /><path
        fill="rgba(194,21,0,1)"
        transform="matrix(1, 0, 0, 1, 0, 0)"
        data-type="circle"
        data-cx="309.476"
        data-cy="488.463"
        data-r="23.537"
        d="M309.476 488.463m-23.537 0a23.537 23.537 0 1 0 47.074 0a23.537 23.537 0 1 0 -47.074 0"
        data-uid="o_fd3h0kbba_22"
      /><path
        d="m202.524 464.926c-12.978 0-23.537 10.559-23.537 23.537s10.559 23.537 23.537 23.537c12.979 0 23.537-10.559 23.537-23.537s-10.558-23.537-23.537-23.537z"
        fill="rgba(194,21,0,1)"
        transform="matrix(1, 0, 0, 1, 0, 0)"
        data-uid="o_fd3h0kbba_23"
      /><path
        d="m202.524 47.074c12.979 0 23.537-10.559 23.537-23.537.001-12.978-10.558-23.537-23.537-23.537-12.978 0-23.537 10.559-23.537 23.537.001 12.978 10.559 23.537 23.537 23.537z"
        fill="rgba(194,21,0,1)"
        transform="matrix(1, 0, 0, 1, 0, 0)"
        data-uid="o_fd3h0kbba_24"
      /></g><g fill="rgba(234,74,53,1)" data-uid="o_fd3h0kbba_25"><path
        d="m101.993 170.862c-17.459 0-31.663 14.204-31.663 31.663s14.204 31.663 31.663 31.663 31.663-14.204 31.663-31.663-14.204-31.663-31.663-31.663z"
        fill="rgba(234,74,53,1)"
        transform="matrix(1, 0, 0, 1, 0, 0)"
        data-uid="o_fd3h0kbba_26"
      /><path
        d="m410.007 170.862c-17.459 0-31.663 14.204-31.663 31.663s14.204 31.663 31.663 31.663 31.663-14.204 31.663-31.663-14.204-31.663-31.663-31.663z"
        fill="rgba(234,74,53,1)"
        transform="matrix(1, 0, 0, 1, 0, 0)"
        data-uid="o_fd3h0kbba_27"
      /><path
        d="m101.993 277.813c-17.459 0-31.663 14.204-31.663 31.663s14.204 31.663 31.663 31.663 31.663-14.204 31.663-31.663-14.204-31.663-31.663-31.663z"
        fill="rgba(234,74,53,1)"
        transform="matrix(1, 0, 0, 1, 0, 0)"
        data-uid="o_fd3h0kbba_28"
      /><path
        d="m410.007 277.813c-17.459 0-31.663 14.204-31.663 31.663s14.204 31.663 31.663 31.663 31.663-14.204 31.663-31.663-14.204-31.663-31.663-31.663z"
        fill="rgba(234,74,53,1)"
        transform="matrix(1, 0, 0, 1, 0, 0)"
        data-uid="o_fd3h0kbba_29"
      /><path
        d="m309.476 133.656c17.459 0 31.662-14.204 31.662-31.663s-14.203-31.663-31.662-31.663-31.663 14.204-31.663 31.663 14.204 31.663 31.663 31.663z"
        fill="rgba(234,74,53,1)"
        transform="matrix(1, 0, 0, 1, 0, 0)"
        data-uid="o_fd3h0kbba_30"
      /><path
        d="m309.476 378.344c-17.459 0-31.663 14.204-31.663 31.663s14.204 31.663 31.663 31.663 31.662-14.204 31.662-31.663-14.203-31.663-31.662-31.663z"
        fill="rgba(234,74,53,1)"
        transform="matrix(1, 0, 0, 1, 0, 0)"
        data-uid="o_fd3h0kbba_31"
      /><path
        d="m202.524 133.656c17.459 0 31.663-14.204 31.663-31.663s-14.204-31.663-31.663-31.663-31.663 14.204-31.663 31.663 14.204 31.663 31.663 31.663z"
        fill="rgba(234,74,53,1)"
        transform="matrix(1, 0, 0, 1, 0, 0)"
        data-uid="o_fd3h0kbba_32"
      /><path
        d="m202.524 378.344c-17.459 0-31.663 14.204-31.663 31.663s14.204 31.663 31.663 31.663 31.663-14.204 31.663-31.663-14.204-31.663-31.663-31.663z"
        fill="rgba(234,74,53,1)"
        transform="matrix(1, 0, 0, 1, 0, 0)"
        data-uid="o_fd3h0kbba_33"
      /></g><g fill="rgba(255,96,76,1)" data-uid="o_fd3h0kbba_34"><path
        transform="matrix(0.7896926403045654, -0.18666939437389374, 0.18666939437389374, 0.7896926403045654, 5.233527183532715, 83.3380355834961)"
        fill="rgba(255,96,76,1)"
        data-cx="202.525"
        data-cy="202.525"
        data-rx="48.358"
        data-ry="48.358"
        d="M154.167 202.525 C154.167 175.8176140691716 175.8176140691716 154.167 202.525 154.167 C229.2323859308284 154.167 250.883 175.8176140691716 250.883 202.525 C250.883 229.2323859308284 229.2323859308284 250.883 202.525 250.883 C175.8176140691716 250.883 154.167 229.2323859308284 154.167 202.525 Z"
        data-uid="o_fd3h0kbba_35"
      /><path
        d="m309.476 261.117c-26.665 0-48.358 21.693-48.358 48.358s21.693 48.358 48.358 48.358c26.664 0 48.357-21.693 48.357-48.358 0-26.664-21.693-48.358-48.357-48.358z"
        fill="rgba(255,96,76,1)"
        transform="matrix(0.8114304542541504, 0.016877448186278343, -0.016877448186278343, 0.8114304542541504, 63.878543853759766, 54.00707244873047)"
        data-uid="o_fd3h0kbba_36"
      /><path
        transform="matrix(0.5738055109977722, -0.5738055109977722, 0.5738055109977722, 0.5738055109977722, -90.86143493652344, 248.969970703125)"
        fill="rgba(255,96,76,1)"
        data-cx="202.525"
        data-cy="309.475"
        data-rx="48.358"
        data-ry="48.358"
        d="M154.167 309.475 C154.167 282.7676140691716 175.8176140691716 261.117 202.525 261.117 C229.2323859308284 261.117 250.883 282.7676140691716 250.883 309.475 C250.883 336.18238593082845 229.2323859308284 357.833 202.525 357.833 C175.8176140691716 357.833 154.167 336.18238593082845 154.167 309.475 Z"
        data-uid="o_fd3h0kbba_37"
      /><path
        d="m309.476 154.167c-26.665 0-48.358 21.693-48.358 48.358s21.693 48.358 48.358 48.358c26.664 0 48.357-21.693 48.357-48.358s-21.693-48.358-48.357-48.358z"
        fill="rgba(255,96,76,1)"
        transform="matrix(0.8116059303283691, 0, 0, 0.8116059303283691, 58.60108184814453, 41.1759147644043)"
        data-uid="o_fd3h0kbba_38"
      /></g></g><path
    text="FChat"
    fill="#c21500"
    space="preserve"
    text-anchor="start"
    offset="0"
    font-scale="contain"
    font-size="48"
    font-family="Kodchasan"
    transform="matrix(1.625577759687876, 0, 0, 1.625577759687876, 125.09305570357267, 274.70494155533464)"
    font-style="normal"
    font-weight="400"
    letter-spacing="-2"
    stroke-width="1"
    stroke="#c21500"
    data-fl-textpath=""
    data-uid="o_fd3h0kbba_39"
    d="M 5.62 0.48Q 4.8 0.48  4.32-0.02Q 3.84-0.53  3.84-1.44L 3.84-1.44L 3.84-27.84Q 3.84-30.53  5.45-32.06Q 7.06-33.6  9.94-33.6L 9.94-33.6L 24.82-33.6Q 26.69-33.6  26.69-32.06L 26.69-32.06Q 26.69-31.39  26.21-31.01Q 25.73-30.62  24.82-30.62L 24.82-30.62L 9.98-30.62Q 8.83-30.62  8.14-29.86Q 7.44-29.09  7.44-27.84L 7.44-27.84L 7.44-18.19L 21.17-18.19Q 23.04-18.19  23.04-16.66L 23.04-16.66Q 23.04-15.94  22.54-15.55Q 22.03-15.17  21.17-15.17L 21.17-15.17L 7.44-15.17L 7.44-1.44Q 7.44-0.53  6.96-0.02Q 6.48 0.48  5.62 0.48L 5.62 0.48ZM 44.276 0.48Q 39.276 0.48  35.516-1.66Q 31.746-3.79  29.676-7.7Q 27.616-11.62  27.616-16.75L 27.616-16.75Q 27.616-21.94  29.676-25.87Q 31.746-29.81  35.516-31.94Q 39.276-34.08  44.226-34.08L 44.226-34.08Q 48.356-34.08  51.836-32.69Q 55.316-31.3  57.276-28.8L 57.276-28.8Q 57.666-28.37  57.666-27.74L 57.666-27.74Q 57.666-26.98  56.996-26.5L 56.996-26.5Q 56.556-26.21  56.036-26.21L 56.036-26.21Q 55.116-26.21  54.496-26.93L 54.496-26.93Q 52.956-28.9  50.316-29.95Q 47.676-31.01  44.226-31.01L 44.226-31.01Q 40.236-31.01  37.316-29.28Q 34.386-27.55  32.826-24.34Q 31.266-21.12  31.266-16.75L 31.266-16.75Q 31.266-12.43  32.826-9.24Q 34.386-6.05  37.336-4.32Q 40.286-2.59  44.276-2.59L 44.276-2.59Q 47.966-2.59  50.726-3.67Q 53.486-4.75  55.076-6.67L 55.076-6.67Q 55.796-7.44  56.606-7.44L 56.606-7.44Q 57.186-7.44  57.566-7.1L 57.566-7.1Q 58.236-6.53  58.236-5.86L 58.236-5.86Q 58.236-5.28  57.806-4.75L 57.806-4.75Q 55.836-2.35  52.216-0.94Q 48.596 0.48  44.276 0.48L 44.276 0.48ZM 63.972 0.48Q 63.152 0.48  62.692-0.02Q 62.242-0.53  62.242-1.44L 62.242-1.44L 62.242-34.51Q 62.242-35.42  62.692-35.93Q 63.152-36.43  63.972-36.43L 63.972-36.43Q 64.782-36.43  65.262-35.93Q 65.742-35.42  65.742-34.51L 65.742-34.51L 65.742-19.25Q 67.522-21.6  70.042-22.8Q 72.562-24  75.532-24L 75.532-24Q 80.092-24  82.572-21.46Q 85.042-18.91  85.042-14.16L 85.042-14.16L 85.042-1.44Q 85.042-0.53  84.562-0.02Q 84.082 0.48  83.262 0.48L 83.262 0.48Q 82.402 0.48  81.972-0.02Q 81.532-0.53  81.532-1.44L 81.532-1.44L 81.532-14.16Q 81.532-20.98  75.102-20.98L 75.102-20.98Q 70.882-20.98  68.312-18.48Q 65.742-15.98  65.742-11.86L 65.742-11.86L 65.742-1.44Q 65.742-0.58  65.292-0.05Q 64.832 0.48  63.972 0.48L 63.972 0.48ZM 98.3 0.48Q 93.6 0.48  90.94-1.58Q 88.27-3.65  88.27-7.3L 88.27-7.3Q 88.27-10.9  91.08-13.01Q 93.89-15.12  98.74-15.12L 98.74-15.12Q 101.57-15.12  103.75-14.35Q 105.94-13.58  107.14-12.29L 107.14-12.29L 107.14-15.36Q 107.14-18.1  105.34-19.54Q 103.54-20.98  100.08-20.98L 100.08-20.98Q 95.62-20.98  92.35-18.86L 92.35-18.86Q 91.54-18.38  91.01-18.38L 91.01-18.38Q 90.53-18.38  90.05-18.77L 90.05-18.77Q 89.52-19.2  89.52-19.87L 89.52-19.87Q 89.52-20.59  90.14-21.07L 90.14-21.07Q 91.87-22.42  94.54-23.21Q 97.2-24  99.98-24L 99.98-24Q 105.07-24  107.88-21.7Q 110.69-19.39  110.69-15.22L 110.69-15.22L 110.69-1.39Q 110.69 0.48  108.96 0.48L 108.96 0.48Q 108.19 0.48  107.71-0.02Q 107.23-0.53  107.23-1.34L 107.23-1.34L 107.23-3.07Q 104.26 0.48  98.3 0.48L 98.3 0.48ZM 98.74-2.45Q 102.48-2.45  104.83-3.86Q 107.18-5.28  107.18-7.54L 107.18-7.54Q 107.18-9.79  105-11.02Q 102.82-12.24  98.83-12.24L 98.83-12.24Q 95.47-12.24  93.65-10.97Q 91.82-9.7  91.82-7.3L 91.82-7.3Q 91.82-4.94  93.6-3.7Q 95.38-2.45  98.74-2.45L 98.74-2.45ZM 130.718-4.75Q 131.248-4.32  131.248-3.74L 131.248-3.74Q 131.248-3.26  130.818-2.59L 130.818-2.59Q 129.808-1.2  128.028-0.36Q 126.258 0.48  124.388 0.48L 124.388 0.48Q 121.218 0.48  119.388-1.39Q 117.568-3.26  117.568-6.53L 117.568-6.53L 117.568-20.59L 114.978-20.59Q 113.058-20.59  113.058-22.08L 113.058-22.08Q 113.058-22.75  113.558-23.14Q 114.068-23.52  114.978-23.52L 114.978-23.52L 117.568-23.52L 117.568-31.73Q 117.568-32.64  118.028-33.14Q 118.478-33.65  119.348-33.65L 119.348-33.65Q 120.158-33.65  120.618-33.14Q 121.068-32.64  121.068-31.73L 121.068-31.73L 121.068-23.52L 127.598-23.52Q 128.468-23.52  128.968-23.16Q 129.468-22.8  129.468-22.08L 129.468-22.08Q 129.468-20.59  127.598-20.59L 127.598-20.59L 121.068-20.59L 121.068-6.24Q 121.068-2.54  124.528-2.54L 124.528-2.54Q 125.628-2.54  126.548-2.98Q 127.458-3.41  128.368-4.37L 128.368-4.37Q 129.088-5.14  129.758-5.14L 129.758-5.14Q 130.188-5.14  130.718-4.75L 130.718-4.75Z"
    style=""
  /></svg>
